<?xml version="1.0" encoding="UTF-8"?>
<!DOCTYPE svg PUBLIC "-//W3C//DTD SVG 1.1//EN" "http://www.w3.org/Graphics/SVG/1.1/DTD/svg11.dtd">
<svg xmlns="http://www.w3.org/2000/svg" version="1.1" width="50px" height="50px" style="shape-rendering:geometricPrecision; text-rendering:geometricPrecision; image-rendering:optimizeQuality; fill-rule:evenodd; clip-rule:evenodd" xmlns:xlink="http://www.w3.org/1999/xlink">
<g><path style="opacity:0.797" fill="#000000" d="M 1.5,3.5 C 16.8333,3.5 32.1667,3.5 47.5,3.5C 47.5,14.5 47.5,25.5 47.5,36.5C 43.4862,36.3345 39.4862,36.5012 35.5,37C 40.3994,38.385 42.7327,41.5516 42.5,46.5C 30.5,46.5 18.5,46.5 6.5,46.5C 6.26725,41.5516 8.60058,38.385 13.5,37C 9.51383,36.5012 5.51383,36.3345 1.5,36.5C 1.5,25.5 1.5,14.5 1.5,3.5 Z M 3.5,5.5 C 17.5,5.5 31.5,5.5 45.5,5.5C 45.5,13.1667 45.5,20.8333 45.5,28.5C 42.5,28.5 39.5,28.5 36.5,28.5C 36.9129,22.9513 36.0796,17.618 34,12.5C 30.547,10.5713 26.8803,9.23796 23,8.5C 20.1861,8.40764 17.8527,9.40764 16,11.5C 13.8632,16.9513 12.6965,22.6179 12.5,28.5C 9.5,28.5 6.5,28.5 3.5,28.5C 3.5,20.8333 3.5,13.1667 3.5,5.5 Z M 21.5,11.5 C 27.0946,11.2033 30.9279,13.5366 33,18.5C 33.203,22.4213 33.703,26.2546 34.5,30C 32.26,30.977 29.9267,31.477 27.5,31.5C 27.1043,34.0444 27.771,36.2111 29.5,38C 32.9561,39.4814 36.2895,41.148 39.5,43C 29.5,43.6667 19.5,43.6667 9.5,43C 12.7105,41.148 16.0439,39.4814 19.5,38C 21.229,36.2111 21.8957,34.0444 21.5,31.5C 19.146,31.162 16.8127,30.662 14.5,30C 15.7931,25.9627 16.6264,21.7961 17,17.5C 17.8041,14.8541 19.3041,12.8541 21.5,11.5 Z M 3.5,30.5 C 6.1873,30.3359 8.85397,30.5026 11.5,31C 13.0261,32.8871 15.0261,33.8871 17.5,34C 12.8452,34.4992 8.17853,34.6658 3.5,34.5C 3.5,33.1667 3.5,31.8333 3.5,30.5 Z M 37.5,30.5 C 40.1667,30.5 42.8333,30.5 45.5,30.5C 45.5,31.8333 45.5,33.1667 45.5,34.5C 40.8215,34.6658 36.1548,34.4992 31.5,34C 34.2644,33.9942 36.2644,32.8275 37.5,30.5 Z"/></g>
<g><path style="opacity:1" fill="#000000" d="M 40.5,31.5 C 42.337,31.6395 42.6704,32.3061 41.5,33.5C 40.7025,33.0431 40.3691,32.3764 40.5,31.5 Z"/></g>
</svg>
