<svg version="1.1" preserveAspectRatio="none" xmlns="http://www.w3.org/2000/svg" width="500" height="500" viewBox="0 0 500 500"><rect width="100%" height="100%" fill="#FFFFFF" fill-opacity="1"/><svg viewBox="-22.1165 378.7869 636.0941 262.6466" width="333" height="137.4974517135122" x="83.5px" y="181.2513px" xmlns="http://www.w3.org/2000/svg" xmlns:xlink="http://www.w3.org/1999/xlink" preserveAspectRatio="none"><defs></defs><style>.aLgOaV3zRcolors-3 {fill:#9C8B58;fill-opacity:1;}.aLgOaV3zRcolors-4 {fill:#2C3E57;fill-opacity:1;}.aLgOaV3zRcolors-5 {fill:#C8B889;fill-opacity:1;}.aLgOaV3zRcolors-6 {fill:#9C8B58;fill-opacity:1;}.aLgOaV3zRcolors-7 {fill:#2C3E57;fill-opacity:1;}.companyName {fill:#1A1245;fill-opacity:1;}.icon1 {fill:#9C8B58;fill-opacity:1;}.icon2 {fill:#2C3E57;fill-opacity:1;}.icon3 {fill:#C8B889;fill-opacity:1;}.icon3-str {stroke:#C8B889;stroke-opacity:1;}.text {fill:#1A1245;fill-opacity:1;}</style><g opacity="1" transform="rotate(0 -22.1165 615.4335)">
<svg width="636.0941" height="26" x="-22.1165" y="615.4335" version="1.1" preserveAspectRatio="none" viewBox="1.9141 -30.8594 983.2531000000001 40.1953">
  <g transform="matrix(1 0 0 1 0 0)" class="text"><path id="id-6izo4zJp50" d="M1.91-14.88L1.91-14.88Q1.91-22.11 5.49-26.31Q9.06-30.51 14.80-30.51L14.80-30.51Q18.40-30.51 20.94-28.54Q23.48-26.56 24.73-23.75L24.73-23.75L21.48-22.66Q18.87-27.27 14.73-27.27L14.73-27.27Q10.63-27.27 8.22-23.89Q5.82-20.51 5.82-14.88L5.82-14.88Q5.82-9.18 8.26-5.88Q10.70-2.58 14.73-2.58L14.73-2.58Q17.30-2.58 19.24-4.04Q21.17-5.51 22.11-7.66L22.11-7.66L25.51-6.56Q24.92-5.23 24.04-4.06Q23.16-2.89 21.88-1.76Q20.59-0.63 18.77 0.04Q16.95 0.70 14.80 0.70L14.80 0.70Q9.14 0.70 5.53-3.44Q1.91-7.58 1.91-14.88Z M34.40 0L30.69 0L30.69-21.52L34.21-21.52L34.21-18.67Q34.83-20.04 36.28-21.13Q37.72-22.23 39.87-22.23L39.87-22.23Q41.51-22.23 42.84-21.68L42.84-21.68L42.84-18.36Q41.43-18.91 39.87-18.91L39.87-18.91Q37.25-18.91 35.83-16.91Q34.40-14.92 34.40-11.64L34.40-11.64L34.40 0Z M48.96-5.70L48.96-5.70Q48.96-4.30 50.13-3.32Q51.31-2.34 53.30-2.34L53.30-2.34Q55.95-2.34 57.81-4.06Q59.67-5.78 59.67-8.48L59.67-8.48L59.67-11.13Q58.10-10.74 54.59-10.20L54.59-10.20Q48.96-9.26 48.96-5.70ZM45.29-5.39L45.29-5.39Q45.29-11.45 54.47-12.85L54.47-12.85Q58.45-13.48 59.67-13.87L59.67-13.87L59.67-15.08Q59.67-16.95 58.36-18.13Q57.05-19.30 54.67-19.30L54.67-19.30Q52.79-19.30 51.05-18.42Q49.31-17.54 48.14-16.09L48.14-16.09L45.84-18.05Q47.44-19.96 49.74-21.09Q52.05-22.23 54.59-22.23L54.59-22.23Q63.30-22.23 63.30-13.63L63.30-13.63L63.30 0L59.78 0L59.78-3.24Q59.12-1.64 57.24-0.47Q55.37 0.70 52.83 0.70L52.83 0.70Q49.28 0.70 47.28-1.00Q45.29-2.70 45.29-5.39Z M71.73-18.44L68.17-18.44L68.17-21.52L71.73-21.52L71.73-24.49Q71.73-27.73 73.35-29.30Q74.97-30.86 77.82-30.86L77.82-30.86L80.83-30.86L80.83-27.81L78.33-27.81Q75.40-27.81 75.40-24.18L75.40-24.18L75.40-21.52L80.32-21.52L80.32-18.44L75.40-18.44L75.40 0L71.73 0L71.73-18.44Z M86.56-18.44L82.93-18.44L82.93-21.52L86.56-21.52L86.56-28.24L90.23-28.24L90.23-21.52L95.62-21.52L95.62-18.44L90.23-18.44L90.23-6.52Q90.23-4.69 90.93-3.91Q91.64-3.13 93.16-3.13L93.16-3.13L95.66-3.13L95.66 0L92.69 0Q86.56 0 86.56-6.21L86.56-6.21L86.56-18.44Z M105.65-25.78L101.31-25.78L101.31-30.23L105.65-30.23L105.65-25.78ZM105.30 0L101.70 0L101.70-21.52L105.30-21.52L105.30 0Z M116.81 0L113.10 0L113.10-21.52L116.69-21.52L116.69-18.16L116.73-18.16Q117.24-19.61 118.98-20.92Q120.72-22.23 123.25-22.23L123.25-22.23Q126.34-22.23 128.27-20.31Q130.21-18.40 130.21-13.91L130.21-13.91L130.21 0L126.50 0L126.50-13.32Q126.50-19.14 122.43-19.14L122.43-19.14Q120.13-19.14 118.47-17.25Q116.81-15.35 116.81-12.70L116.81-12.70L116.81 0Z M139.45-11.17L139.45-11.17Q139.45-7.54 141.02-5.37Q142.58-3.20 145.08-3.20L145.08-3.20Q147.58-3.20 149.08-5.31Q150.59-7.42 150.59-11.21L150.59-11.21Q150.59-14.92 149.06-17.03Q147.54-19.14 145.12-19.14L145.12-19.14Q142.54-19.14 141.00-16.91Q139.45-14.69 139.45-11.17ZM135.74-11.13L135.74-11.13Q135.74-16.13 138.24-19.18Q140.74-22.23 144.65-22.23L144.65-22.23Q146.95-22.23 148.46-21.04Q149.96-19.84 150.59-18.36L150.59-18.36L150.59-21.52L154.22-21.52L154.22-2.70Q154.22 3.40 151.97 6.37Q149.73 9.34 144.92 9.34L144.92 9.34Q139.65 9.34 136.76 5.35L136.76 5.35L139.26 3.67Q141.64 6.37 145.00 6.37L145.00 6.37Q147.58 6.37 149.06 4.38Q150.55 2.38 150.59-0.90L150.59-0.90Q150.59-1.45 150.61-2.42Q150.63-3.40 150.63-3.79L150.63-3.79Q149.85-2.19 148.32-1.15Q146.80-0.12 144.77-0.12L144.77-0.12Q140.70-0.12 138.22-3.18Q135.74-6.25 135.74-11.13Z M170.80-5.86L170.80-5.86L174.24-7.07Q175.41-5 177.46-3.79Q179.51-2.58 182.21-2.58L182.21-2.58Q185.10-2.58 186.89-3.98Q188.69-5.39 188.69-7.77L188.69-7.77Q188.69-9.02 188.16-9.98Q187.64-10.94 186.50-11.64Q185.37-12.34 184.37-12.77Q183.38-13.20 181.70-13.75L181.70-13.75Q177.05-15.27 175.33-16.37L175.33-16.37Q171.82-18.63 171.82-22.58L171.82-22.58Q171.82-26.17 174.61-28.34Q177.40-30.51 181.97-30.51L181.97-30.51Q185.57-30.51 188.18-28.85Q190.80-27.19 191.97-24.65L191.97-24.65L188.73-23.55Q186.35-27.27 181.89-27.27L181.89-27.27Q179.04-27.27 177.38-25.98Q175.72-24.69 175.72-22.58L175.72-22.58Q175.72-21.37 176.31-20.43Q176.89-19.49 178.10-18.81Q179.32-18.13 180.41-17.70Q181.50-17.27 183.30-16.68L183.30-16.68Q183.81-16.52 184.04-16.45L184.04-16.45Q185.92-15.82 187.23-15.21Q188.53-14.61 189.88-13.61Q191.23-12.62 191.91-11.19Q192.60-9.77 192.60-7.89L192.60-7.89Q192.60-3.83 189.73-1.56Q186.85 0.70 182.13 0.70L182.13 0.70Q178.07 0.70 175.16-1.07Q172.25-2.85 170.80-5.86Z M199.66-18.44L196.02-18.44L196.02-21.52L199.66-21.52L199.66-28.24L203.33-28.24L203.33-21.52L208.72-21.52L208.72-18.44L203.33-18.44L203.33-6.52Q203.33-4.69 204.03-3.91Q204.73-3.13 206.26-3.13L206.26-3.13L208.76-3.13L208.76 0L205.79 0Q199.66 0 199.66-6.21L199.66-6.21L199.66-18.44Z M216.48-10.74L216.48-10.74Q216.48-6.80 218.24-4.59Q220.00-2.38 222.54-2.38L222.54-2.38Q225.04-2.38 226.79-4.59Q228.55-6.80 228.55-10.74L228.55-10.74Q228.55-14.77 226.79-16.95Q225.04-19.14 222.54-19.14L222.54-19.14Q220.04-19.14 218.26-16.97Q216.48-14.80 216.48-10.74ZM212.73-10.74L212.73-10.74Q212.73-15.63 215.27-18.93Q217.81-22.23 222.54-22.23L222.54-22.23Q227.18-22.23 229.74-18.93Q232.30-15.63 232.30-10.74L232.30-10.74Q232.30-8.71 231.77-6.80Q231.25-4.88 230.17-3.14Q229.10-1.41 227.11-0.35Q225.11 0.70 222.54 0.70L222.54 0.70Q219.96 0.70 217.99-0.33Q216.01-1.37 214.90-3.09Q213.79-4.80 213.26-6.74Q212.73-8.67 212.73-10.74Z M241.74 0L238.03 0L238.03-21.52L241.55-21.52L241.55-18.67Q242.17-20.04 243.62-21.13Q245.06-22.23 247.21-22.23L247.21-22.23Q248.85-22.23 250.18-21.68L250.18-21.68L250.18-18.36Q248.77-18.91 247.21-18.91L247.21-18.91Q244.60-18.91 243.17-16.91Q241.74-14.92 241.74-11.64L241.74-11.64L241.74 0Z M258.88-25.78L254.55-25.78L254.55-30.23L258.88-30.23L258.88-25.78ZM258.53 0L254.94 0L254.94-21.52L258.53-21.52L258.53 0Z M264.96-10.90L264.96-10.90Q264.96-15.98 267.74-19.10Q270.51-22.23 274.85-22.23L274.85-22.23Q279.18-22.23 281.78-19.14Q284.38-16.05 284.38-11.25L284.38-11.25Q284.38-10.63 284.30-9.53L284.30-9.53L268.67-9.53Q268.67-6.56 270.37-4.43Q272.07-2.30 275.04-2.30L275.04-2.30Q279.03-2.30 280.86-5.74L280.86-5.74L283.95-4.77Q282.93-2.38 280.65-0.84Q278.36 0.70 275.00 0.70L275.00 0.70Q270.51 0.70 267.74-2.48Q264.96-5.66 264.96-10.90ZM268.75-12.23L268.75-12.23L280.67-12.23Q280.67-15.16 279.10-17.19Q277.54-19.22 274.85-19.22L274.85-19.22Q272.11-19.22 270.47-17.13Q268.83-15.04 268.75-12.23Z M288.39-4.34L288.39-4.34L291.09-5.90Q293.39-2.34 297.26-2.34L297.26-2.34Q299.45-2.34 300.77-3.16Q302.10-3.98 302.10-5.47L302.10-5.47Q302.10-6.02 301.93-6.48Q301.75-6.95 301.22-7.36Q300.70-7.77 300.32-8.03Q299.95-8.28 298.96-8.63Q297.96-8.98 297.47-9.14Q296.98-9.30 295.66-9.73L295.66-9.73Q294.25-10.16 293.29-10.61Q292.34-11.05 291.26-11.78Q290.19-12.50 289.64-13.59Q289.09-14.69 289.09-16.09L289.09-16.09Q289.09-18.83 291.34-20.53Q293.59-22.23 297.26-22.23L297.26-22.23Q299.91-22.23 302.18-20.84Q304.45-19.45 305.46-17.46L305.46-17.46L303.00-15.90Q302.10-17.27 300.62-18.22Q299.13-19.18 297.30-19.18L297.30-19.18Q295.11-19.18 293.96-18.34Q292.80-17.50 292.80-16.05L292.80-16.05Q292.80-15.20 293.25-14.51Q293.70-13.83 294.72-13.30Q295.73-12.77 296.46-12.50Q297.18-12.23 298.59-11.80L298.59-11.80Q300.03-11.37 301.11-10.90Q302.18-10.43 303.35-9.69Q304.52-8.95 305.17-7.85Q305.81-6.76 305.81-5.43L305.81-5.43Q305.81-2.85 303.55-1.07Q301.28 0.70 297.30 0.70L297.30 0.70Q294.33 0.70 292.02-0.63Q289.72-1.95 288.39-4.34Z M313.18 6.72L310.18 6.72L313.57-5.12L318.38-5.12L313.18 6.72Z M325.01-5.86L325.01-5.86L328.45-7.07Q329.62-5 331.67-3.79Q333.72-2.58 336.42-2.58L336.42-2.58Q339.31-2.58 341.10-3.98Q342.90-5.39 342.90-7.77L342.90-7.77Q342.90-9.02 342.37-9.98Q341.85-10.94 340.71-11.64Q339.58-12.34 338.58-12.77Q337.59-13.20 335.91-13.75L335.91-13.75Q331.26-15.27 329.54-16.37L329.54-16.37Q326.02-18.63 326.02-22.58L326.02-22.58Q326.02-26.17 328.82-28.34Q331.61-30.51 336.18-30.51L336.18-30.51Q339.77-30.51 342.39-28.85Q345.01-27.19 346.18-24.65L346.18-24.65L342.94-23.55Q340.56-27.27 336.10-27.27L336.10-27.27Q333.25-27.27 331.59-25.98Q329.93-24.69 329.93-22.58L329.93-22.58Q329.93-21.37 330.52-20.43Q331.10-19.49 332.31-18.81Q333.52-18.13 334.62-17.70Q335.71-17.27 337.51-16.68L337.51-16.68Q338.02-16.52 338.25-16.45L338.25-16.45Q340.13-15.82 341.44-15.21Q342.74-14.61 344.09-13.61Q345.44-12.62 346.12-11.19Q346.81-9.77 346.81-7.89L346.81-7.89Q346.81-3.83 343.94-1.56Q341.06 0.70 336.34 0.70L336.34 0.70Q332.27 0.70 329.36-1.07Q326.45-2.85 325.01-5.86Z M356.33 0L352.69 0L352.69-30.86L356.33-30.86L356.33-18.48L356.40-18.48Q357.22-20.04 358.92-21.13Q360.62-22.23 362.65-22.23L362.65-22.23Q365.86-22.23 367.79-20.27Q369.72-18.32 369.72-13.91L369.72-13.91L369.72 0L366.09 0L366.09-13.36Q366.09-19.14 361.99-19.14L361.99-19.14Q359.69-19.14 358.01-17.21Q356.33-15.27 356.33-12.62L356.33-12.62L356.33 0Z M378.89-5.70L378.89-5.70Q378.89-4.30 380.07-3.32Q381.24-2.34 383.23-2.34L383.23-2.34Q385.89-2.34 387.74-4.06Q389.60-5.78 389.60-8.48L389.60-8.48L389.60-11.13Q388.03-10.74 384.52-10.20L384.52-10.20Q378.89-9.26 378.89-5.70ZM375.22-5.39L375.22-5.39Q375.22-11.45 384.40-12.85L384.40-12.85Q388.39-13.48 389.60-13.87L389.60-13.87L389.60-15.08Q389.60-16.95 388.29-18.13Q386.98-19.30 384.60-19.30L384.60-19.30Q382.72-19.30 380.98-18.42Q379.25-17.54 378.07-16.09L378.07-16.09L375.77-18.05Q377.37-19.96 379.67-21.09Q381.98-22.23 384.52-22.23L384.52-22.23Q393.23-22.23 393.23-13.63L393.23-13.63L393.23 0L389.71 0L389.71-3.24Q389.05-1.64 387.17-0.47Q385.30 0.70 382.76 0.70L382.76 0.70Q379.21 0.70 377.21-1.00Q375.22-2.70 375.22-5.39Z M403.84 0L400.13 0L400.13-21.52L403.65-21.52L403.65-18.67Q404.27-20.04 405.72-21.13Q407.16-22.23 409.31-22.23L409.31-22.23Q410.95-22.23 412.28-21.68L412.28-21.68L412.28-18.36Q410.87-18.91 409.31-18.91L409.31-18.91Q406.70-18.91 405.27-16.91Q403.84-14.92 403.84-11.64L403.84-11.64L403.84 0Z M420.98-25.78L416.65-25.78L416.65-30.23L420.98-30.23L420.98-25.78ZM420.63 0L417.04 0L417.04-21.52L420.63-21.52L420.63 0Z M432.14 0L428.43 0L428.43-21.52L432.02-21.52L432.02-18.16L432.06-18.16Q432.57-19.61 434.31-20.92Q436.05-22.23 438.59-22.23L438.59-22.23Q441.67-22.23 443.61-20.31Q445.54-18.40 445.54-13.91L445.54-13.91L445.54 0L441.83 0L441.83-13.32Q441.83-19.14 437.77-19.14L437.77-19.14Q435.46-19.14 433.80-17.25Q432.14-15.35 432.14-12.70L432.14-12.70L432.14 0Z M454.79-11.17L454.79-11.17Q454.79-7.54 456.35-5.37Q457.91-3.20 460.41-3.20L460.41-3.20Q462.91-3.20 464.42-5.31Q465.92-7.42 465.92-11.21L465.92-11.21Q465.92-14.92 464.40-17.03Q462.87-19.14 460.45-19.14L460.45-19.14Q457.87-19.14 456.33-16.91Q454.79-14.69 454.79-11.17ZM451.08-11.13L451.08-11.13Q451.08-16.13 453.58-19.18Q456.08-22.23 459.98-22.23L459.98-22.23Q462.29-22.23 463.79-21.04Q465.30-19.84 465.92-18.36L465.92-18.36L465.92-21.52L469.55-21.52L469.55-2.70Q469.55 3.40 467.31 6.37Q465.06 9.34 460.26 9.34L460.26 9.34Q454.98 9.34 452.09 5.35L452.09 5.35L454.59 3.67Q456.97 6.37 460.33 6.37L460.33 6.37Q462.91 6.37 464.40 4.38Q465.88 2.38 465.92-0.90L465.92-0.90Q465.92-1.45 465.94-2.42Q465.96-3.40 465.96-3.79L465.96-3.79Q465.18-2.19 463.65-1.15Q462.13-0.12 460.10-0.12L460.10-0.12Q456.04-0.12 453.56-3.18Q451.08-6.25 451.08-11.13Z M485.16-5.04L485.16-5.04L488.44-6.33Q488.95-4.65 490.16-3.61Q491.37-2.58 493.01-2.58L493.01-2.58Q497.42-2.58 497.42-8.83L497.42-8.83L497.42-29.80L501.25-29.80L501.25-8.28Q501.25-3.91 499.14-1.60Q497.03 0.70 493.09 0.70L493.09 0.70Q489.88 0.70 487.91-0.92Q485.94-2.54 485.16-5.04Z M511.24-10.74L511.24-10.74Q511.24-6.80 513.00-4.59Q514.75-2.38 517.29-2.38L517.29-2.38Q519.79-2.38 521.55-4.59Q523.31-6.80 523.31-10.74L523.31-10.74Q523.31-14.77 521.55-16.95Q519.79-19.14 517.29-19.14L517.29-19.14Q514.79-19.14 513.02-16.97Q511.24-14.80 511.24-10.74ZM507.49-10.74L507.49-10.74Q507.49-15.63 510.03-18.93Q512.57-22.23 517.29-22.23L517.29-22.23Q521.94-22.23 524.50-18.93Q527.06-15.63 527.06-10.74L527.06-10.74Q527.06-8.71 526.53-6.80Q526.00-4.88 524.93-3.14Q523.86-1.41 521.86-0.35Q519.87 0.70 517.29 0.70L517.29 0.70Q514.72 0.70 512.74-0.33Q510.77-1.37 509.66-3.09Q508.54-4.80 508.02-6.74Q507.49-8.67 507.49-10.74Z M532.56-7.66L532.56-7.66L532.56-21.52L536.23-21.52L536.23-8.28Q536.23-2.38 540.49-2.38L540.49-2.38Q543.06-2.38 544.47-4.45Q545.88-6.52 545.88-9.34L545.88-9.34L545.88-21.52L549.51-21.52L549.51 0L545.99 0L545.99-3.13L545.95-3.13Q545.52-1.84 543.96-0.57Q542.40 0.70 539.67 0.70L539.67 0.70Q536.62 0.70 534.59-1.35Q532.56-3.40 532.56-7.66Z M560.36 0L556.65 0L556.65-21.52L560.16-21.52L560.16-18.67Q560.79-20.04 562.23-21.13Q563.68-22.23 565.83-22.23L565.83-22.23Q567.47-22.23 568.80-21.68L568.80-21.68L568.80-18.36Q567.39-18.91 565.83-18.91L565.83-18.91Q563.21-18.91 561.78-16.91Q560.36-14.92 560.36-11.64L560.36-11.64L560.36 0Z M576.56 0L572.85 0L572.85-21.52L576.44-21.52L576.44-18.16L576.48-18.16Q576.99-19.61 578.73-20.92Q580.46-22.23 583.00-22.23L583.00-22.23Q586.09-22.23 588.02-20.31Q589.96-18.40 589.96-13.91L589.96-13.91L589.96 0L586.25 0L586.25-13.32Q586.25-19.14 582.18-19.14L582.18-19.14Q579.88-19.14 578.22-17.25Q576.56-15.35 576.56-12.70L576.56-12.70L576.56 0Z M595.45-10.90L595.45-10.90Q595.45-15.98 598.23-19.10Q601-22.23 605.34-22.23L605.34-22.23Q609.67-22.23 612.27-19.14Q614.87-16.05 614.87-11.25L614.87-11.25Q614.87-10.63 614.79-9.53L614.79-9.53L599.16-9.53Q599.16-6.56 600.86-4.43Q602.56-2.30 605.53-2.30L605.53-2.30Q609.52-2.30 611.35-5.74L611.35-5.74L614.44-4.77Q613.42-2.38 611.14-0.84Q608.85 0.70 605.49 0.70L605.49 0.70Q601 0.70 598.23-2.48Q595.45-5.66 595.45-10.90ZM599.24-12.23L599.24-12.23L611.16-12.23Q611.16-15.16 609.59-17.19Q608.03-19.22 605.34-19.22L605.34-19.22Q602.60-19.22 600.96-17.13Q599.32-15.04 599.24-12.23Z M626.18 0L617.90-21.52L622.04-21.52L626.22-9.45Q627.36-6.17 627.90-4.18L627.90-4.18L628.06-4.18Q629.19-7.93 629.66-9.45L629.66-9.45L633.61-21.52L637.71-21.52L628.57 3.32Q627.40 6.56 625.70 7.87Q624.00 9.18 621.54 9.18L621.54 9.18L620.25 9.18L620.25 6.13L620.95 6.13Q622.55 6.13 623.61 5.31Q624.66 4.49 625.40 2.38L625.40 2.38L626.18 0Z M640.47-4.34L640.47-4.34L643.17-5.90Q645.47-2.34 649.34-2.34L649.34-2.34Q651.53-2.34 652.85-3.16Q654.18-3.98 654.18-5.47L654.18-5.47Q654.18-6.02 654.01-6.48Q653.83-6.95 653.30-7.36Q652.78-7.77 652.40-8.03Q652.03-8.28 651.04-8.63Q650.04-8.98 649.55-9.14Q649.06-9.30 647.74-9.73L647.74-9.73Q646.33-10.16 645.37-10.61Q644.42-11.05 643.34-11.78Q642.27-12.50 641.72-13.59Q641.17-14.69 641.17-16.09L641.17-16.09Q641.17-18.83 643.42-20.53Q645.67-22.23 649.34-22.23L649.34-22.23Q651.99-22.23 654.26-20.84Q656.53-19.45 657.54-17.46L657.54-17.46L655.08-15.90Q654.18-17.27 652.70-18.22Q651.21-19.18 649.38-19.18L649.38-19.18Q647.19-19.18 646.04-18.34Q644.88-17.50 644.88-16.05L644.88-16.05Q644.88-15.20 645.33-14.51Q645.78-13.83 646.80-13.30Q647.81-12.77 648.54-12.50Q649.26-12.23 650.67-11.80L650.67-11.80Q652.11-11.37 653.19-10.90Q654.26-10.43 655.43-9.69Q656.60-8.95 657.25-7.85Q657.89-6.76 657.89-5.43L657.89-5.43Q657.89-2.85 655.63-1.07Q653.36 0.70 649.38 0.70L649.38 0.70Q646.41 0.70 644.10-0.63Q641.80-1.95 640.47-4.34Z M665.26 6.72L662.26 6.72L665.65-5.12L670.46-5.12L665.26 6.72Z M694.30 0L690.52 0L690.52-29.80L694.30-29.80L694.30 0Z M706.01 0L702.30 0L702.30-21.52L705.90-21.52L705.90-18.16L705.93-18.16Q706.44-19.61 708.18-20.92Q709.92-22.23 712.46-22.23L712.46-22.23Q715.54-22.23 717.48-20.31Q719.41-18.40 719.41-13.91L719.41-13.91L719.41 0L715.70 0L715.70-13.32Q715.70-19.14 711.64-19.14L711.64-19.14Q709.33-19.14 707.67-17.25Q706.01-15.35 706.01-12.70L706.01-12.70L706.01 0Z M724.60-4.34L724.60-4.34L727.29-5.90Q729.60-2.34 733.46-2.34L733.46-2.34Q735.65-2.34 736.98-3.16Q738.31-3.98 738.31-5.47L738.31-5.47Q738.31-6.02 738.13-6.48Q737.95-6.95 737.43-7.36Q736.90-7.77 736.53-8.03Q736.16-8.28 735.16-8.63Q734.17-8.98 733.68-9.14Q733.19-9.30 731.86-9.73L731.86-9.73Q730.45-10.16 729.50-10.61Q728.54-11.05 727.47-11.78Q726.39-12.50 725.85-13.59Q725.30-14.69 725.30-16.09L725.30-16.09Q725.30-18.83 727.54-20.53Q729.79-22.23 733.46-22.23L733.46-22.23Q736.12-22.23 738.38-20.84Q740.65-19.45 741.67-17.46L741.67-17.46L739.20-15.90Q738.31-17.27 736.82-18.22Q735.34-19.18 733.50-19.18L733.50-19.18Q731.31-19.18 730.16-18.34Q729.01-17.50 729.01-16.05L729.01-16.05Q729.01-15.20 729.46-14.51Q729.91-13.83 730.92-13.30Q731.94-12.77 732.66-12.50Q733.38-12.23 734.79-11.80L734.79-11.80Q736.24-11.37 737.31-10.90Q738.38-10.43 739.56-9.69Q740.73-8.95 741.37-7.85Q742.02-6.76 742.02-5.43L742.02-5.43Q742.02-2.85 739.75-1.07Q737.49 0.70 733.50 0.70L733.50 0.70Q730.53 0.70 728.23-0.63Q725.92-1.95 724.60-4.34Z M751.34-10.78L751.34-10.78Q751.34-6.99 752.85-4.69Q754.35-2.38 757.05-2.38L757.05-2.38Q759.58-2.38 761.24-4.63Q762.90-6.88 762.90-10.78L762.90-10.78Q762.90-14.49 761.32-16.82Q759.74-19.14 757.05-19.14L757.05-19.14Q754.47-19.14 752.90-16.80Q751.34-14.45 751.34-10.78ZM751.34 9.18L747.71 9.18L747.71-21.52L751.23-21.52L751.23-18.01Q752.12-19.88 753.78-21.05Q755.44-22.23 757.55-22.23L757.55-22.23Q761.50-22.23 764.06-19.12Q766.62-16.02 766.62-10.78L766.62-10.78Q766.62-5.16 763.90-2.23Q761.19 0.70 757.55 0.70L757.55 0.70Q755.25 0.70 753.65-0.45Q752.05-1.60 751.34-3.28L751.34-3.28L751.34 9.18Z M777.03-25.78L772.70-25.78L772.70-30.23L777.03-30.23L777.03-25.78ZM776.68 0L773.09 0L773.09-21.52L776.68-21.52L776.68 0Z M788.20 0L784.48 0L784.48-21.52L788.00-21.52L788.00-18.67Q788.63-20.04 790.07-21.13Q791.52-22.23 793.66-22.23L793.66-22.23Q795.30-22.23 796.63-21.68L796.63-21.68L796.63-18.36Q795.23-18.91 793.66-18.91L793.66-18.91Q791.05-18.91 789.62-16.91Q788.20-14.92 788.20-11.64L788.20-11.64L788.20 0Z M805.33-25.78L801.00-25.78L801.00-30.23L805.33-30.23L805.33-25.78ZM804.98 0L801.39 0L801.39-21.52L804.98-21.52L804.98 0Z M816.49 0L812.78 0L812.78-21.52L816.38-21.52L816.38-18.16L816.42-18.16Q816.92-19.61 818.66-20.92Q820.40-22.23 822.94-22.23L822.94-22.23Q826.03-22.23 827.96-20.31Q829.89-18.40 829.89-13.91L829.89-13.91L829.89 0L826.18 0L826.18-13.32Q826.18-19.14 822.12-19.14L822.12-19.14Q819.81-19.14 818.15-17.25Q816.49-15.35 816.49-12.70L816.49-12.70L816.49 0Z M839.14-11.17L839.14-11.17Q839.14-7.54 840.70-5.37Q842.26-3.20 844.76-3.20L844.76-3.20Q847.26-3.20 848.77-5.31Q850.27-7.42 850.27-11.21L850.27-11.21Q850.27-14.92 848.75-17.03Q847.23-19.14 844.80-19.14L844.80-19.14Q842.23-19.14 840.68-16.91Q839.14-14.69 839.14-11.17ZM835.43-11.13L835.43-11.13Q835.43-16.13 837.93-19.18Q840.43-22.23 844.33-22.23L844.33-22.23Q846.64-22.23 848.14-21.04Q849.65-19.84 850.27-18.36L850.27-18.36L850.27-21.52L853.90-21.52L853.90-2.70Q853.90 3.40 851.66 6.37Q849.41 9.34 844.61 9.34L844.61 9.34Q839.33 9.34 836.44 5.35L836.44 5.35L838.94 3.67Q841.33 6.37 844.69 6.37L844.69 6.37Q847.26 6.37 848.75 4.38Q850.23 2.38 850.27-0.90L850.27-0.90Q850.27-1.45 850.29-2.42Q850.31-3.40 850.31-3.79L850.31-3.79Q849.53-2.19 848.01-1.15Q846.48-0.12 844.45-0.12L844.45-0.12Q840.39-0.12 837.91-3.18Q835.43-6.25 835.43-11.13Z M876.73 0L872.95 0L872.95-29.80L877.75-29.80L883.84-14.53Q884.47-12.89 885.45-10.10Q886.42-7.30 886.58-6.91L886.58-6.91L886.73-6.91Q886.93-7.50 889.59-14.53L889.59-14.53L895.60-29.80L900.48-29.80L900.48 0L896.70 0L896.70-15.70Q896.70-19.45 897.13-24.77L897.13-24.77L896.97-24.77L895.25-20L888.26-2.03L885.17-2.03L878.18-20L876.38-24.80L876.23-24.80Q876.73-18.71 876.73-15.70L876.73-15.70L876.73 0Z M913.09-25.78L908.75-25.78L908.75-30.23L913.09-30.23L913.09-25.78ZM912.74 0L909.15 0L909.15-21.52L912.74-21.52L912.74 0Z M924.25 0L920.54 0L920.54-21.52L924.13-21.52L924.13-18.16L924.17-18.16Q924.68-19.61 926.42-20.92Q928.16-22.23 930.70-22.23L930.70-22.23Q933.78-22.23 935.72-20.31Q937.65-18.40 937.65-13.91L937.65-13.91L937.65 0L933.94 0L933.94-13.32Q933.94-19.14 929.88-19.14L929.88-19.14Q927.57-19.14 925.91-17.25Q924.25-15.35 924.25-12.70L924.25-12.70L924.25 0Z M943.15-10.78L943.15-10.78Q943.15-16.09 945.73-19.16Q948.30-22.23 952.25-22.23L952.25-22.23Q954.44-22.23 956.08-21.02Q957.72-19.80 958.42-18.24L958.42-18.24L958.42-30.86L962.05-30.86L962.05 0L958.54 0L958.54-3.52Q957.76-1.72 956.08-0.51Q954.40 0.70 952.25 0.70L952.25 0.70Q950.61 0.70 949.05 0.06Q947.48-0.59 946.14-1.89Q944.79-3.20 943.97-5.51Q943.15-7.81 943.15-10.78ZM946.90-10.78L946.90-10.78Q946.90-6.91 948.50-4.65Q950.10-2.38 952.72-2.38L952.72-2.38Q955.14-2.38 956.82-4.65Q958.50-6.91 958.50-10.78L958.50-10.78Q958.50-14.57 956.84-16.86Q955.18-19.14 952.72-19.14L952.72-19.14Q950.06-19.14 948.48-16.84Q946.90-14.53 946.90-10.78Z M967.75-4.34L967.75-4.34L970.44-5.90Q972.75-2.34 976.61-2.34L976.61-2.34Q978.80-2.34 980.13-3.16Q981.46-3.98 981.46-5.47L981.46-5.47Q981.46-6.02 981.28-6.48Q981.10-6.95 980.58-7.36Q980.05-7.77 979.68-8.03Q979.31-8.28 978.31-8.63Q977.32-8.98 976.83-9.14Q976.34-9.30 975.01-9.73L975.01-9.73Q973.60-10.16 972.65-10.61Q971.69-11.05 970.62-11.78Q969.54-12.50 969.00-13.59Q968.45-14.69 968.45-16.09L968.45-16.09Q968.45-18.83 970.69-20.53Q972.94-22.23 976.61-22.23L976.61-22.23Q979.27-22.23 981.53-20.84Q983.80-19.45 984.82-17.46L984.82-17.46L982.35-15.90Q981.46-17.27 979.97-18.22Q978.49-19.18 976.65-19.18L976.65-19.18Q974.46-19.18 973.31-18.34Q972.16-17.50 972.16-16.05L972.16-16.05Q972.16-15.20 972.61-14.51Q973.06-13.83 974.07-13.30Q975.09-12.77 975.81-12.50Q976.53-12.23 977.94-11.80L977.94-11.80Q979.39-11.37 980.46-10.90Q981.53-10.43 982.71-9.69Q983.88-8.95 984.52-7.85Q985.17-6.76 985.17-5.43L985.17-5.43Q985.17-2.85 982.90-1.07Q980.64 0.70 976.65 0.70L976.65 0.70Q973.68 0.70 971.38-0.63Q969.07-1.95 967.75-4.34Z"/></g>
</svg>
</g><g opacity="1" transform="rotate(0 124.8193 491.4335)">
<svg width="342.2225" height="100" x="124.8193" y="491.4335" version="1.1" preserveAspectRatio="none" viewBox="4.5703 -29.3359 132.3438 38.6719">
  <g transform="matrix(1 0 0 1 0 0)" class="companyName"><path id="id-D6z1nYkh7" d="M15.82 0L4.57 0L4.57-28.16L14.61-28.16Q18.52-28.16 20.61-26.21Q22.70-24.26 22.70-21.09L22.70-21.09Q22.70-18.59 21.37-16.99Q20.04-15.39 18.05-14.73L18.05-14.73Q20.47-14.14 22.13-12.21Q23.79-10.27 23.79-7.66L23.79-7.66Q23.79-4.34 21.60-2.17Q19.41 0 15.82 0L15.82 0ZM6.37-13.79L6.37-1.56L15.35-1.56Q18.24-1.56 20.10-3.28Q21.95-5 21.95-7.62L21.95-7.62Q21.95-10.23 20.04-12.01Q18.13-13.79 15.16-13.79L15.16-13.79L6.37-13.79ZM6.37-26.60L6.37-15.31L14.18-15.31Q17.03-15.31 18.95-16.76Q20.86-18.20 20.86-21.02L20.86-21.02Q20.86-23.44 19.26-25.02Q17.66-26.60 14.38-26.60L14.38-26.60L6.37-26.60Z M31.64 0L29.84 0L29.84-29.34L31.64-29.34L31.64 0Z M39.34-10.04L39.34-10.04Q39.34-5.94 41.27-3.36Q43.20-0.78 46.33-0.78L46.33-0.78Q49.41-0.78 51.37-3.38Q53.32-5.98 53.32-10.04L53.32-10.04Q53.32-14.18 51.33-16.70Q49.34-19.22 46.33-19.22L46.33-19.22Q43.32-19.22 41.33-16.72Q39.34-14.22 39.34-10.04ZM37.54-10.04L37.54-10.04Q37.54-14.69 39.88-17.70Q42.23-20.70 46.33-20.70L46.33-20.70Q50.35-20.70 52.73-17.70Q55.12-14.69 55.12-10.04L55.12-10.04Q55.12-7.97 54.57-6.09Q54.02-4.22 52.99-2.68Q51.95-1.13 50.23-0.21Q48.52 0.70 46.33 0.70L46.33 0.70Q42.07 0.70 39.80-2.46Q37.54-5.63 37.54-10.04Z M60.94-10.39L60.94-10.39Q60.94-6.45 62.73-3.96Q64.53-1.48 67.38-1.48L67.38-1.48Q70.35-1.48 72.09-3.87Q73.83-6.25 73.83-10.43L73.83-10.43Q73.83-14.38 72.03-16.80Q70.23-19.22 67.46-19.22L67.46-19.22Q64.41-19.22 62.68-16.74Q60.94-14.26 60.94-10.39ZM59.14-10.39L59.14-10.39Q59.14-15 61.37-17.85Q63.59-20.70 67.30-20.70L67.30-20.70Q69.88-20.70 71.48-19.22Q73.09-17.73 73.83-15.78L73.83-15.78L73.83-20.04L75.59-20.04L75.59-1.80Q75.59 3.87 73.69 6.60Q71.80 9.34 67.50 9.34L67.50 9.34Q63.13 9.34 60.51 5.94L60.51 5.94L61.80 5.12Q64.26 7.89 67.54 7.89L67.54 7.89Q73.83 7.89 73.83-1.21L73.83-1.21L73.83-4.80Q71.99 0 67.34 0L67.34 0Q63.63 0 61.39-2.91Q59.14-5.82 59.14-10.39Z M83.05-10.39L83.05-10.39Q83.05-6.45 84.84-3.96Q86.64-1.48 89.49-1.48L89.49-1.48Q92.46-1.48 94.20-3.87Q95.94-6.25 95.94-10.43L95.94-10.43Q95.94-14.38 94.14-16.80Q92.34-19.22 89.57-19.22L89.57-19.22Q86.52-19.22 84.79-16.74Q83.05-14.26 83.05-10.39ZM81.25-10.39L81.25-10.39Q81.25-15 83.48-17.85Q85.70-20.70 89.41-20.70L89.41-20.70Q91.99-20.70 93.59-19.22Q95.20-17.73 95.94-15.78L95.94-15.78L95.94-20.04L97.70-20.04L97.70-1.80Q97.70 3.87 95.80 6.60Q93.91 9.34 89.61 9.34L89.61 9.34Q85.23 9.34 82.62 5.94L82.62 5.94L83.91 5.12Q86.37 7.89 89.65 7.89L89.65 7.89Q95.94 7.89 95.94-1.21L95.94-1.21L95.94-4.80Q94.10 0 89.45 0L89.45 0Q85.74 0 83.50-2.91Q81.25-5.82 81.25-10.39Z M103.36-10.16L103.36-10.16Q103.36-14.80 105.76-17.75Q108.16-20.70 112.15-20.70L112.15-20.70Q116.17-20.70 118.48-17.79Q120.78-14.88 120.78-10.66L120.78-10.66Q120.78-10.43 120.76-10.08Q120.74-9.73 120.74-9.49L120.74-9.49L105.16-9.49Q105.16-5.94 107.05-3.36Q108.95-0.78 112.27-0.78L112.27-0.78Q114.38-0.78 116.11-1.86Q117.85-2.93 118.75-4.57L118.75-4.57L120.27-4.02Q119.22-1.91 117.19-0.61Q115.16 0.70 112.27 0.70L112.27 0.70Q108.16 0.70 105.76-2.32Q103.36-5.35 103.36-10.16ZM105.20-10.86L105.20-10.86L118.98-10.86Q118.98-14.30 117.11-16.76Q115.23-19.22 112.15-19.22L112.15-19.22Q108.95-19.22 107.11-16.70Q105.27-14.18 105.20-10.86Z M128.01 0L126.25 0L126.25-20.04L127.93-20.04L127.93-16.56Q128.48-18.09 129.96-19.39Q131.45-20.70 133.91-20.70L133.91-20.70Q135.66-20.70 136.91-20.12L136.91-20.12L136.91-18.52Q135.51-19.14 133.91-19.14L133.91-19.14Q131.17-19.14 129.59-17.09Q128.01-15.04 128.01-11.84L128.01-11.84L128.01 0Z"/></g>
</svg>
</g><g opacity="1" transform="rotate(0 248.0194 378.7869)">
<svg width="95.8223" height="82.6466" x="248.0194" y="378.7869" version="1.1" preserveAspectRatio="none" viewBox="20 31.000001907348633 160 138">
  <g transform="matrix(1 0 0 1 0 0)"><g><path d="M87.3 169c-2.1 0-3.9-1.7-3.9-3.9V34.9c0-2.2 1.7-3.9 3.9-3.9s3.9 1.7 3.9 3.9v130.2c0 2.2-1.8 3.9-3.9 3.9z" data-color="1" class="icon1"></path><path d="M23.9 86.1c-2.1 0-3.9 1.7-3.9 3.9v20c0 2.2 1.7 3.9 3.9 3.9s3.9-1.7 3.9-3.9V90c-.1-2.2-1.8-3.9-3.9-3.9z" data-color="2" class="icon2"></path><path d="M176.1 87.7c-2.1 0-3.9 1.7-3.9 3.9v16.7c0 2.2 1.7 3.9 3.9 3.9s3.9-1.7 3.9-3.9V91.6c0-2.1-1.7-3.9-3.9-3.9z" data-color="2" class="icon2"></path><path d="M36.6 69.1c-2.1 0-3.9 1.7-3.9 3.9v54c0 2.2 1.7 3.9 3.9 3.9s3.9-1.7 3.9-3.9V73c-.1-2.1-1.8-3.9-3.9-3.9z" data-color="2" class="icon2"></path><path d="M49.2 75.7c-2.1 0-3.9 1.7-3.9 3.9v40.9c0 2.2 1.7 3.9 3.9 3.9s3.9-1.7 3.9-3.9V79.6c0-2.2-1.7-3.9-3.9-3.9z" data-color="2" class="icon2"></path><path d="M61.9 57.7c-2.1 0-3.9 1.7-3.9 3.9v76.9c0 2.2 1.7 3.9 3.9 3.9 2.1 0 3.9-1.7 3.9-3.9v-77c0-2.1-1.7-3.8-3.9-3.8z" data-color="2" class="icon2"></path><path d="M74.6 39.9c-2.1 0-3.9 1.7-3.9 3.9v112.4c0 2.2 1.7 3.9 3.9 3.9s3.9-1.7 3.9-3.9V43.8c0-2.2-1.7-3.9-3.9-3.9z" data-color="2" class="icon2"></path><path d="M100 52.7c-2.1 0-3.9 1.7-3.9 3.9v86.7c0 2.2 1.7 3.9 3.9 3.9s3.9-1.7 3.9-3.9V56.6c0-2.1-1.8-3.9-3.9-3.9z" data-color="2" class="icon2"></path><path d="M112.7 73.4c-2.1 0-3.9 1.7-3.9 3.9v45.5c0 2.2 1.7 3.9 3.9 3.9s3.9-1.7 3.9-3.9V77.3c0-2.2-1.8-3.9-3.9-3.9z" data-color="2" class="icon2"></path><path d="M125.4 86.1c-2.1 0-3.9 1.7-3.9 3.9v20c0 2.2 1.7 3.9 3.9 3.9s3.9-1.7 3.9-3.9V90c-.1-2.2-1.8-3.9-3.9-3.9z" data-color="2" class="icon2"></path><path d="M163.4 81.1c-2.1 0-3.9 1.7-3.9 3.9v25.3c0 1.6-1.1 2.9-2.5 2.9-1.2 0-2.3-1.1-2.5-2.5V74.9c0-2.2-1.7-3.9-3.9-3.9s-3.9 1.7-3.9 3.9v21.7c-.1 1.5-1.2 2.8-2.5 2.8-1.4 0-2.4-1.3-2.5-2.8V83.1c0-2.2-1.7-3.9-3.9-3.9s-3.9 1.7-3.9 3.9v33.8c0 2.2 1.7 3.9 3.9 3.9s3.9-1.7 3.9-3.9v-5.7c0-1.6 1.1-2.8 2.5-2.8 1.3 0 2.4 1.2 2.5 2.8v28.1c0 2.2 1.7 3.9 3.9 3.9s3.9-1.7 3.9-3.9v-14.5c.2-1.4 1.2-2.5 2.5-2.5 1.4 0 2.5 1.3 2.5 2.9v6.3c0 2.2 1.7 3.9 3.9 3.9s3.9-1.7 3.9-3.9V85c0-2.1-1.7-3.9-3.9-3.9z" data-color="2" class="icon2"></path><path d="M166.7 144.7c0 2.2-1.8 3.9-3.9 3.9-2.2 0-3.9-1.8-3.9-3.9 0-2.2 1.8-3.9 3.9-3.9 2.1-.1 3.9 1.7 3.9 3.9z" data-color="2" class="icon2"></path></g></g>
</svg>
</g></svg></svg>